<svg width="100%" height="100%" viewBox="0 0 504 504" fill="none" xmlns="http://www.w3.org/2000/svg">
<path fill-rule="evenodd" clip-rule="evenodd" d="M132.171 227.855L227.854 132.172L303.435 172.431L172.429 303.437L132.171 227.855Z" fill="#900000"/>
<path fill-rule="evenodd" clip-rule="evenodd" d="M91.1616 186.846L186.844 91.163L255.191 63.8262L227.854 132.172L132.171 227.855L63.8249 255.192L91.1616 186.846Z" fill="#FE9494"/>
<path fill-rule="evenodd" clip-rule="evenodd" d="M172.429 303.437L74.0538 352.061L63.8248 255.192L132.171 227.855L172.429 303.437Z" fill="#FB191D"/>
<path fill-rule="evenodd" clip-rule="evenodd" d="M303.435 172.431L352.06 74.0552L255.191 63.8262L227.854 132.172L303.435 172.431Z" fill="#CC0001"/>
<path fill-rule="evenodd" clip-rule="evenodd" d="M172.429 303.437L364.911 364.911L303.435 172.431L172.429 303.437Z" fill="#CC0001"/>
<path fill-rule="evenodd" clip-rule="evenodd" d="M172.429 303.437L364.911 364.911L74.0539 352.061L172.429 303.437Z" fill="#FF6D6E"/>
<path fill-rule="evenodd" clip-rule="evenodd" d="M303.437 172.429L364.911 364.911L352.061 74.0539L303.437 172.429Z" fill="#7D0000"/>
<path fill-rule="evenodd" clip-rule="evenodd" d="M91.1616 186.846L227.854 132.172L255.191 63.8262L186.844 91.163L91.1616 186.846Z" fill="#FFC7C7"/>
</svg>